<svg width="209" height="156" viewBox="0 0 209 156" fill="none" xmlns="http://www.w3.org/2000/svg">
<path opacity="0.1" fill-rule="evenodd" clip-rule="evenodd" d="M88.6424 0.100108C88.6424 0.100108 97.4603 0.100107 97.4603 8.92758C97.4603 8.92758 97.4603 10.4854 97.4603 22.1688C97.4603 30.9963 88.6424 30.9963 88.6424 30.9963C65.8194 32.5541 46.3681 46.8338 37.0314 66.5658L66.5975 66.5658C78.787 66.5658 88.6424 76.4318 88.6424 88.6345L88.6424 133.031C88.6424 145.234 78.787 155.1 66.5975 155.1L22.2484 155.1C10.0589 155.1 0.203506 145.234 0.203505 133.031L0.203501 88.6345C0.203496 39.8237 39.8843 0.100112 88.6424 0.100108ZM199.386 0.100098C199.386 0.100098 208.203 0.100098 208.203 8.92757C208.203 8.92757 208.203 10.4854 208.203 22.1688C208.203 30.9962 199.386 30.9963 199.386 30.9963C176.563 32.554 157.111 46.8338 147.775 66.5658L177.341 66.5658C189.53 66.5658 199.386 76.4318 199.386 88.6345L199.386 133.031C199.386 145.234 189.53 155.1 177.341 155.1L132.992 155.1C120.802 155.1 110.947 145.234 110.947 133.031L110.947 88.6345C110.947 39.8237 150.368 0.100103 199.386 0.100098Z" fill="#FFBC2A"/>
</svg>
